<?xml version="1.0" encoding="UTF-8"?>
<svg width="36px" height="40px" viewBox="0 0 36 40" version="1.1" xmlns="http://www.w3.org/2000/svg" xmlns:xlink="http://www.w3.org/1999/xlink">
    <!-- Generator: Sketch 51.2 (57519) - http://www.bohemiancoding.com/sketch -->
    <title>Group</title>
    <desc>Created with Sketch.</desc>
    <defs></defs>
    <g id="Symbols" stroke="none" stroke-width="1" fill="none" fill-rule="evenodd" stroke-linecap="round" stroke-linejoin="round">
        <g id="物业" transform="translate(-83.000000, -15.000000)" stroke="#9B9B9B" stroke-width="3">
            <g id="Group" transform="translate(81.000000, 14.000000)">
                <g id="首页icon-copy" transform="translate(4.000000, 3.000000)">
                    <path d="M22.8571429,35.7647059 L30.578,35.7647059 C31.3632857,35.7647059 32,35.1253085 32,34.3365702 L32,13.133453 C32,11.2228642 31.073,9.43220723 29.5155714,8.33474483 L19.253,1.1025393 C17.1362857,-0.389148824 14.3094286,-0.365191147 12.2178571,1.1622183 L2.40414286,8.32972376 C0.893714286,9.43278107 0,11.1951766 0,13.0707614 L0,34.3365702 C0,35.1253085 0.636714286,35.7647059 1.422,35.7647059 L9.14285714,35.7647059 L9.14285714,24.5377372 C9.14285714,20.7346354 12.2128571,17.6516986 16,17.6516986 C19.7871429,17.6516986 22.8571429,20.7346354 22.8571429,24.5377372 L22.8571429,35.7647059 Z" id="Stroke-1"></path>
                </g>
            </g>
        </g>
    </g>
</svg>