<?xml version="1.0" encoding="UTF-8"?>
<svg width="41px" height="41px" viewBox="0 0 41 41" version="1.1" xmlns="http://www.w3.org/2000/svg" xmlns:xlink="http://www.w3.org/1999/xlink">
    <!-- Generator: Sketch 51.2 (57519) - http://www.bohemiancoding.com/sketch -->
    <title>物业</title>
    <desc>Created with Sketch.</desc>
    <defs></defs>
    <g id="Symbols" stroke="none" stroke-width="1" fill="none" fill-rule="evenodd">
        <g id="物业" transform="translate(-263.000000, -13.000000)">
            <g id="Group-2" transform="translate(263.000000, 13.000000)">
                <g id="成员icon"></g>
                <g id="Group-9-Copy" transform="translate(6.666667, 3.000000)" stroke="#000000" stroke-linecap="round" stroke-linejoin="round" stroke-width="3">
                    <path d="M7.51956279,3.75987857 C7.51956279,5.83633704 5.83627874,7.5196211 3.75982027,7.5196211 C1.68336179,7.5196211 7.77408638e-05,5.83633704 7.77408638e-05,3.75987857 C7.77408638e-05,1.6834201 1.68336179,-5.83056478e-05 3.75982027,-5.83056478e-05 C5.83627874,-5.83056478e-05 7.51956279,1.6834201 7.51956279,3.75987857 Z" id="Stroke-1"></path>
                    <path d="M18.157506,3.75902342 C18.157506,5.48195532 16.760697,6.87876429 15.0377651,6.87876429 C13.3150276,6.87876429 11.9182186,5.48195532 11.9182186,3.75902342 C11.9182186,2.03609153 13.3150276,0.63947691 15.0377651,0.63947691 C16.760697,0.63947691 18.157506,2.03609153 18.157506,3.75902342 Z" id="Stroke-3"></path>
                    <path d="M26.5178571,8.12317216 C26.5178571,9.57520297 25.340953,10.7521071 23.8886842,10.7521071 C22.4368913,10.7521071 21.2597492,9.57520297 21.2597492,8.12317216 C21.2597492,6.67114134 22.4368913,5.49399917 23.8886842,5.49399917 C25.340953,5.49399917 26.5178571,6.67114134 26.5178571,8.12317216 Z" id="Stroke-5"></path>
                    <path d="M13.5074751,10.7571738 C14.4607724,10.7453183 19.659304,10.7521206 22.0422558,14.9287485 C24.824407,19.8052385 23.7006628,23.9583498 22.976701,26.7991953 C22.2525449,29.6398465 20.4143621,34.9870575 14.3987741,34.820109 C8.38299169,34.6529661 9.66416113,29.6954312 9.8868887,29.194197 C10.1098106,28.6929628 11.0011096,25.0165973 8.43877076,23.2341937 C5.87643189,21.45179 2.28227741,20.5589362 3.32439369,15.6352186 C4.24620598,11.2809528 11.9336113,10.7768033 13.5074751,10.7571738 Z" id="Stroke-7"></path>
                </g>
            </g>
        </g>
    </g>
</svg>